<svg xmlns="http://www.w3.org/2000/svg" xmlns:xlink="http://www.w3.org/1999/xlink" version="1.1" x="0px" y="0px" viewBox="0 0 100 125" style="enable-background:new 0 0 100 100;" xml:space="preserve"><style type="text/css">
	.st0{fill:#231F20;}
</style><g><g><path class="st0" d="M37.8,59.1c-0.5,0-1-0.1-1.3-0.5l0,0c-0.5-0.4-0.7-1-0.7-1.7c0.3-2,3.6-4.3,5.9-5.2c0.5-0.2,1-0.4,1.6-0.7    c1.5-3,2.9-6.6,3.7-9c-1.3-3.1-1.5-6.1-1-7.7c0.5-1.3,1.4-1.6,1.9-1.7c1-0.1,1.6,0.3,1.9,0.7c0.3,0.4,1.3,1.6-0.2,6.4    c0,0-0.3,0.9-0.8,2.3c0.8,1.8,2,3.7,3.6,5.3c0.4,0.4,0.7,0.7,1,1c1.2-0.2,2.3-0.3,3.4-0.3c0,0,0,0,0,0c2.6,0,4.1,0.4,4.9,1.2    c0.4,0.4,0.6,1,0.5,1.6c-0.1,0.8-0.6,1.4-1.5,1.8c-1.6,0.6-4.4,0.1-7.8-2.6c-3,0.5-6.1,1.5-8.5,2.4c-1,1.9-2,3.6-3.1,4.6    C40.3,58.4,38.9,59.1,37.8,59.1z M42.1,53.4c-2.4,1.1-4.5,3-4.6,3.8l0.1,0.1c0.3,0.3,1.5-0.1,2.7-1.4    C40.9,55.3,41.5,54.4,42.1,53.4z M55.4,49.7c2.3,1.5,4,1.6,4.8,1.3c0.3-0.1,0.4-0.3,0.5-0.3c0-0.2,0-0.3-0.1-0.3    c-0.2-0.3-1-0.7-3.7-0.7c-0.1,0-0.1,0-0.2,0C56.3,49.7,55.9,49.7,55.4,49.7z M48.1,44.2c-0.7,1.8-1.6,4-2.5,6.1    c1.8-0.6,3.9-1.2,5.9-1.6c-0.1-0.1-0.1-0.1-0.2-0.2C50,47.2,48.9,45.7,48.1,44.2z M48.3,34.3c0,0-0.1,0-0.1,0    c-0.2,0-0.4,0.2-0.5,0.6c-0.4,1-0.3,2.7,0.3,4.6c0.1-0.2,0.1-0.3,0.1-0.3c1-3.1,0.8-4.5,0.5-4.8C48.6,34.4,48.5,34.3,48.3,34.3z"/></g><g><path class="st0" d="M38.3,76.9c0.6-0.1,1.5-0.2,2.7-0.2c1.3,0,2.2,0.3,2.8,0.8c0.6,0.5,0.9,1.2,0.9,2.1c0,0.9-0.3,1.7-0.8,2.2    c-0.7,0.7-1.8,1-3,1c-0.3,0-0.6,0-0.9-0.1v3.6h-1.7V76.9z M40,81.4c0.2,0.1,0.5,0.1,0.9,0.1c1.3,0,2.1-0.6,2.1-1.8    c0-1.1-0.7-1.6-2-1.6c-0.5,0-0.8,0-1,0.1V81.4z"/><path class="st0" d="M46.3,76.9c0.8-0.1,1.8-0.2,2.8-0.2c1.8,0,3,0.4,3.9,1.1c0.9,0.8,1.5,1.9,1.5,3.5c0,1.7-0.6,3-1.5,3.8    c-1,0.9-2.5,1.3-4.4,1.3c-1,0-1.8-0.1-2.4-0.1V76.9z M48,85.1c0.2,0,0.6,0,1,0c2.3,0,3.6-1.2,3.6-3.7c0-2.1-1.2-3.3-3.4-3.3    c-0.6,0-1,0-1.2,0.1V85.1z"/><path class="st0" d="M56,76.8h5.5v1.4h-3.8v2.7h3.5v1.4h-3.5v4.1H56V76.8z"/></g><path class="st0" d="M63.5,6.5h-47v86.9H85V28.1L63.5,6.5z M64.1,10.7l16.6,16.7H64.1V10.7z M61.7,9v20.8h20.8v41H19V9H61.7z    M19,90.9V72.5h63.5v18.4H19z"/></g><text x="0" y="115" fill="#000000" font-size="5px" font-weight="bold" font-family="'Helvetica Neue', Helvetica, Arial-Unicode, Arial, Sans-serif">Created by Sara Kauten</text><text x="0" y="120" fill="#000000" font-size="5px" font-weight="bold" font-family="'Helvetica Neue', Helvetica, Arial-Unicode, Arial, Sans-serif">from the Noun Project</text></svg>